<svg width="31" height="12" viewBox="0 0 31 12" fill="none" xmlns="http://www.w3.org/2000/svg">
<path d="M0.660511 1.50781V0.0909088H9.10334V1.50781H5.69957V11H4.05895V1.50781H0.660511ZM17.9843 0.0909088H19.6356V7.26598C19.6356 8.02947 19.4562 8.70597 19.0976 9.29545C18.7389 9.88139 18.2346 10.343 17.5848 10.6804C16.9349 11.0142 16.1732 11.1811 15.2996 11.1811C14.4296 11.1811 13.6697 11.0142 13.0198 10.6804C12.3699 10.343 11.8657 9.88139 11.507 9.29545C11.1483 8.70597 10.969 8.02947 10.969 7.26598V0.0909088H12.615V7.13281C12.615 7.62642 12.7233 8.06499 12.9399 8.44851C13.1601 8.83203 13.4708 9.13388 13.8721 9.35405C14.2733 9.57067 14.7492 9.67898 15.2996 9.67898C15.8536 9.67898 16.3312 9.57067 16.7325 9.35405C17.1373 9.13388 17.4463 8.83203 17.6594 8.44851C17.876 8.06499 17.9843 7.62642 17.9843 7.13281V0.0909088ZM22.0286 11V0.0909088H25.9171C26.7623 0.0909088 27.4636 0.236505 28.0211 0.527698C28.5822 0.818892 29.0012 1.22195 29.2782 1.73686C29.5552 2.24822 29.6937 2.83949 29.6937 3.51065C29.6937 4.17827 29.5534 4.76598 29.2729 5.27379C28.9959 5.77805 28.5769 6.17045 28.0158 6.45099C27.4583 6.73153 26.7569 6.8718 25.9118 6.8718H22.9661V5.4549H25.7626C26.2953 5.4549 26.7285 5.37855 27.0623 5.22585C27.3997 5.07315 27.6465 4.85121 27.8027 4.56001C27.959 4.26882 28.0371 3.91903 28.0371 3.51065C28.0371 3.09872 27.9572 2.74183 27.7974 2.43999C27.6412 2.13814 27.3944 1.90732 27.057 1.74751C26.7232 1.58416 26.2846 1.50249 25.7413 1.50249H23.6745V11H22.0286ZM27.4139 6.07812L30.1092 11H28.2342L25.5922 6.07812H27.4139Z" fill="#525252"/>
</svg>
