<svg width="19" height="12" viewBox="0 0 19 12" fill="none" xmlns="http://www.w3.org/2000/svg">
<path d="M0.198509 11V0.0909088H4.087C4.93217 0.0909088 5.63352 0.236505 6.19105 0.527698C6.75213 0.818892 7.17116 1.22195 7.44815 1.73686C7.72514 2.24822 7.86364 2.83949 7.86364 3.51065C7.86364 4.17827 7.72337 4.76598 7.44283 5.27379C7.16584 5.77805 6.7468 6.17045 6.18572 6.45099C5.6282 6.73153 4.92685 6.8718 4.08168 6.8718H1.13601V5.4549H3.93253C4.4652 5.4549 4.89844 5.37855 5.23224 5.22585C5.5696 5.07315 5.81641 4.85121 5.97266 4.56001C6.12891 4.26882 6.20703 3.91903 6.20703 3.51065C6.20703 3.09872 6.12713 2.74183 5.96733 2.43999C5.81108 2.13814 5.56428 1.90732 5.22692 1.74751C4.89311 1.58416 4.45455 1.50249 3.91122 1.50249H1.84446V11H0.198509ZM5.58381 6.07812L8.27912 11H6.40412L3.76207 6.07812H5.58381ZM16.8817 0.0909088H18.533V7.26598C18.533 8.02947 18.3537 8.70597 17.995 9.29545C17.6364 9.88139 17.1321 10.343 16.4822 10.6804C15.8324 11.0142 15.0707 11.1811 14.1971 11.1811C13.3271 11.1811 12.5671 11.0142 11.9173 10.6804C11.2674 10.343 10.7631 9.88139 10.4045 9.29545C10.0458 8.70597 9.86648 8.02947 9.86648 7.26598V0.0909088H11.5124V7.13281C11.5124 7.62642 11.6207 8.06499 11.8374 8.44851C12.0575 8.83203 12.3683 9.13388 12.7695 9.35405C13.1708 9.57067 13.6467 9.67898 14.1971 9.67898C14.7511 9.67898 15.2287 9.57067 15.63 9.35405C16.0348 9.13388 16.3438 8.83203 16.5568 8.44851C16.7734 8.06499 16.8817 7.62642 16.8817 7.13281V0.0909088Z" fill="#EE26C2"/>
</svg>
